#N canvas 547 26 809 737 12;
#X obj 340 10 mqtt_client;
#X obj 500 70 print;
#X obj 500 120 route connected publish_result subscribe;
#X obj 500 147 tgl 15 0 empty empty empty 17 7 0 10 #fcfcfc #000000
#000000 0 1;
#X obj 592 147 tgl 15 0 empty empty empty 17 7 0 10 #fcfcfc #000000
#000000 1 1;
#X obj 684 147 tgl 15 0 empty empty empty 17 7 0 10 #fcfcfc #000000
#000000 1 1;
#X msg 420 -190 disconnect;
#X obj 340 70 list trim;
#X msg 400 -220 connect public.cloud.shiftr.io pd-client public public
;
#X obj 500 -80 bng 15 250 50 0 empty empty empty 17 7 0 10 #fcfcfc
#000000 #000000;
#X obj 500 -140 bng 15 250 50 0 empty empty empty 17 7 0 10 #fcfcfc
#000000 #000000;
#X obj 290 200 print rejection;
#X symbolatom 190 270 10 0 0 0 - - -, f 10;
#X symbolatom 280 270 10 0 0 0 - - -, f 10;
#X text 30 340 https://smartenv.roberttwomey.com;
#X text 30 400 Spring 2022;
#X text 30 370 rtwomey@unl.edu;
#X obj 110 -90 symbol;
#X msg 110 -70 publish smartenv/audionode \$1;
#X msg 100 -240 wake;
#X msg 150 -240 think;
#X msg 210 -140 off;
#X obj 160 150 route smartenv;
#X obj 40 180 print smartenv;
#X text 220 -300 work with respeaker mic array / RPi with MQTT;
#X msg 210 -240 talk;
#X msg 50 -150 google;
#X msg 50 -180 echo;
#X msg 500 -120 subscribe smartenv/audionode/speech;
#X msg 500 -60 unsubscribe smartenv/audionode/speech;
#X obj 190 220 unpack s s s;
#X symbolatom 370 270 40 0 0 0 - - -, f 40;
#X text 50 -270 1) controlling the lights;
#X text 530 -160 2) listening for speech transcription;
#X connect 0 0 7 0;
#X connect 0 1 1 0;
#X connect 0 1 2 0;
#X connect 2 0 3 0;
#X connect 2 1 4 0;
#X connect 2 2 5 0;
#X connect 6 0 0 0;
#X connect 7 0 22 0;
#X connect 8 0 0 0;
#X connect 9 0 29 0;
#X connect 10 0 28 0;
#X connect 17 0 18 0;
#X connect 18 0 0 0;
#X connect 19 0 17 0;
#X connect 20 0 17 0;
#X connect 21 0 17 0;
#X connect 22 0 23 0;
#X connect 22 0 30 0;
#X connect 22 1 11 0;
#X connect 25 0 17 0;
#X connect 26 0 17 0;
#X connect 27 0 17 0;
#X connect 28 0 0 0;
#X connect 29 0 0 0;
#X connect 30 0 12 0;
#X connect 30 1 13 0;
#X connect 30 2 31 0;
